<?xml version="1.0" encoding="utf-8"?>
<!-- Generator: Adobe Illustrator 19.1.0, SVG Export Plug-In . SVG Version: 6.00 Build 0)  -->
<svg version="1.1" xmlns="http://www.w3.org/2000/svg" xmlns:xlink="http://www.w3.org/1999/xlink" x="0px" y="0px"
	 viewBox="0 0 744 1135.3" style="enable-background:new 0 0 744 1135.3;" xml:space="preserve">
<style type="text/css">
	.st0{fill:#F9D4A7;}
	.st1{fill:#494642;}
	.st2{fill:#CBF7F7;}
	.st3{fill:#3A3AEF;}
	.st4{fill:#1362B7;}
	.st5{fill:#EC7D29;}
</style>
<g id="ARM">
	<path class="st0" d="M561.8,659.8c0,0,14.1,135.2,4.8,141.7c-9.3,6.5-93.2,62.5-93.2,62.5l-15.8-56c0,0,47.9-40.1,56.1-38.2
		c-16.6-60-19.9-45.3-16.6-60"/>
	<polyline class="st0" points="564.8,665.3 505,673.9 498.7,721.1 	"/>
	<path class="st0" d="M190.9,693.2c0,0,25.7,115.8,35.4,128.7c16.1,17.2,31.4,42.2,31.4,42.2l5.1-57.2l-4.3-53.6l-18.2-60.1v-19.3
		l-49.3,8.6V693.2"/>
</g>
<g id="LEG">
	<polyline class="st0" points="210.3,1095.4 226.8,1135.3 333.6,1135.3 328.7,1078.9 262.8,1058.9 210.3,1095.4 210.3,1095.4 	"/>
	<polyline class="st0" points="507.8,1136.9 513.6,1089.9 372,1089.9 381.9,1136.9 507.8,1136.9 	"/>
</g>
<g id="SKIRT">
	<path class="st1" d="M490.2,918c0,0,85.6,164,100.6,166.8c-39.3,17.1-184,61.1-216.9,50.5c-38.6-15.6-80.7-59.1-127.1-49.8
		c-46.4,9.3-93.5,33.5-93.5,33.5s49.1-168,78.1-195.3c29-27.3,13.3-14.5,13.3-14.5l232-3L490.2,918"/>
</g>
<g id="SHIRT">
	<path class="st2" d="M488.4,516.2c0,0,92.4,42,87,71.7c-5.4,29.7-21.6,39.2-6.8,50c14.9,10.8,32.4,25.7,43.2,20.3
		c-24.3,10.8-104,9.5-104,23c-5.4,27-27,122.9-39.2,143.2c5.4,32.4,6.4,84.4,45.5,96c-39.1-2.7-241.7-33.6-300.8,13.7
		c22.7-27.5,43.7-47.7,44-65.9s21.3-190.2-2.7-188.9c-27.1,3.4-69.4,7.6-76.9,19.2c5.5-17.9,39.1-122.9,72.8-136
		c39.1-15.1,70.7-60.4,70.7-60.4l44.6,3.4l81.7,9.6L488.4,516.2z"/>
</g>
<g id="shade">
	<polygon class="st3" points="514.2,920.4 495.3,927.7 490.2,918 	"/>
	<polygon class="st4" points="213.4,934.1 219.6,939.9 235.4,922 	"/>
</g>
<g id="Layer_10">
	<path id="top_hair_1_" class="st5" d="M452.9,447.2c21.1-86.1,22-149.7,3.3-175.9c41.2,52.4,29,73,23.4,123.5
		C556.3,210.5,387,180.5,387,180.5s0,0-13.1-3.2c-2.7-18.4,1.2-35.1,18-49.8c22.6-19.8,61.9-35.6,76.9-42.6
		c-109.4-8.5-112.5,77-120.2,92.4C242.2,172.7,222.3,279,216.1,312.9c-10,40.8,3.9,79.3,16.2,117.1c-4.8-27.1-3-57.4,0.1-81.5
		c-0.5,48.3,24.5,89,28.7,100.9c0.3,0.9,2.8,0.9,1.6,26.3L452.9,447.2z"/>
	<path id="bot_hair" class="st5" d="M262.4,444.1c1.5,15.9-3.5,40.2-5.8,60.5c-1.2,6.8-2.3,12.5-2.9,15.9
		c-1.8,5.7-4.3,12.1-7.3,18.8c-1.3,2.7-2.7,5.6-4.1,8.7c-10.4,21-24.8,45.2-36.8,68.4c-3.3,6.4-5.7,13.5-7.3,20.9c0,0,0,0,0,0
		c-5.1,12.4-4.6,29.8-1.2,48.6c2.9,23.9,9.8,45.2,15.1,54.5c1.2,2.4,2.5,5,3.7,7.6c4.5,11.2,8.9,21,12.5,28.3c3,7,4.9,11.9,4.9,11.9
		s-0.3-1.4-0.7-3.9c1,1.8,1.8,3.1,2.5,4c-1-1.6-2.2-5.1-3.6-9.9c-2.5-12.4-7.3-35.1-14-60.2c-1.6-7.3-2.9-13.8-4-18.6
		c-4.6-32.5,4.5-60.2,12.8-79.7c0.6-1.4,1.1-2.5,1.5-3.5c3.9-3.6,8.2-9.9,12.6-17.8c17.9-28.1,27.4-56.4,32.2-75.7
		c1.2-3.2,2.3-6.3,3.3-9.1c-3.9,22-15.6,50.6-34.7,92.5c-1.9,6.1-3.6,11.9-5.1,17.4c0,0,0,0,0,0c-3.6,10-5.5,20.4-6.4,30.8
		c-6,42.7,4.2,64.5,11.3,81.4c1.8,5.6,3.5,10.5,5,14.5c2.3,8.1,4.5,17.7,6.3,28c3.4,24.1,3.8,53,2.8,70.5
		c26.8-31.2,11.6-130.2,12-144c0,0,0,0,0,0c0,0,0,0,0,0c10.1,27.9,22.5,55.2,29.5,76.8c3.5,15.5,4.8,27.5,4.7,32.6
		c9-29.3-9.1-108.1-12.1-125.7c-0.8-10.4,0.8-26.5,3.7-45.1c0.3-2,0.7-4.1,1-6.2c-1.4,8,0.5,19.6,4.2,32.5
		c2.4,11.2,6.2,20.7,12.7,35.8c6.4,15.7,13,30.4,17.3,40.4c0.1,0.2,0.2,0.5,0.3,0.7c0.3,0.9,0.7,1.7,1,2.6c1.5,4.4,2.5,9.2,3,14.1
		c0.6,10.8-2,25.1-5.4,60.7c0,0,0,0,0,0l0,0c-0.1,0.9-0.2,1.8-0.2,2.7c0.8-1.6,1.6-3.3,2.4-5c14.8-17.4,22.3-55,25.6-95.6
		c5.7-44.2,4.8-87.5,0.3-116.6c-0.5-6.9-1-12.9-1.6-17.8c3.2,6.3,6,13.2,8.4,20.6c9.3,28.2,13.4,63.2,14,93.5
		c-0.4,21.8-2,39.8-2.8,48.3c-0.1,0.9-0.3,1.7-0.5,2.5c0.9-1.6,1.7-3.2,2.5-4.8c14.6-17.4,22-45.9,25.5-75.1
		c6-33.3,4.9-63.9,1.4-90.5c6,7.2,15.5,21.3,19.2,41.3c3.1,16.4,4.2,34.8,1.3,56.3c-5,30.9-14.6,56.1-16.3,60.6
		c10.1-8.3,18.7-26.5,25.6-47.1c15.1-36.4,19-69.8,19.8-90.8c2.7,6.8,4.8,12.9,6.2,18.4c2.5,12.6,2.5,24.9,1,36.1
		c-2.6,13.2-7.8,28.1-14,50.6c16.6-22.6,25.5-46.8,29.6-70.3c7.5-36.5,2.4-68.3-4.7-93.5c-2-8.2-4.2-15.1-6-20.4
		c8.1,21.9,13.9,40.3,18,56c7.9,32.1,8.6,54.6,7,71.4c-1.2,10.4-3.4,20-5.8,30.1c-0.4,1.5-0.7,2.9-1,4.2c1.4-2.6,2.7-5.3,3.9-8
		c17.6-38.7,19-82,13.3-122.7c0,0,0,0,0,0c-10.3-77.3-44.4-148-44.4-148"/>
</g>
</svg>
