<svg class="svg-music j-genre" id="j-rap" xmlns="http://www.w3.org/2000/svg" viewBox="0 0 1567.2 1230.1">
    <style>
        .st1001{fill:#f9842d}.st101{fill:#ee407f}.st103,.st104,.st106{display:inline;fill:#a9a8a8}.st104,.st106{fill:#db4b9b}.st106{fill:#9c3571}.st107{fill:#dbd9d9}.st108{display:inline;fill:#eaa1c7}.st109{fill:#ee4494}.st109,.st110{display:inline}.st111{fill:#fef8fb}.st112,.st113,.st114{display:inline;stroke-miterlimit:10}.st112{stroke:#ed218e;stroke-width:8;fill:#fef8fb}.st113,.st114{fill:none}.st113{stroke-width:4;stroke:#7dd1e9}.st114{stroke:#000}.st115,.st116{display:inline;fill:#58595a}.st116{fill:#d485b8}.st117{fill:#ece830}.st118{fill:none}.st119,.st120{fill:#7f777f}.st120{display:inline}.st121{fill:#ffe1c0}.st122{display:inline;fill:#ee407f}.st123,.st124,.st125{display:inline;fill:#ebe84b}.st124,.st125{fill:#a95aa3}.st125{fill:#7dd1e9}.st126{fill:#825422}.st127,.st128,.st129{fill:#825422;stroke:#825422;stroke-width:7.874;stroke-miterlimit:10}.st128,.st129{display:inline;fill:#262524;stroke:#262524;stroke-width:5.5056}.st129{stroke-width:3.4877}.st130,.st131{display:inline;fill:#1b1a1b}.st131{fill:#757273}.st132{fill:#c2d950}
    </style>
    <circle class="st1001" cx="768" cy="615.1" r="547.5" id="icon_x5F_circle"/>
    <path class="st107" d="M756.7 747.9c-110.9 0-200.8 104.1-200.8 232.5 0 64.3 22.6 122.5 59 164.6 48.6 14.1 100 21.7 153.1 21.7 42.5 0 83.9-4.8 123.6-14 40.5-42.5 66-104 66-172.3-.1-128.4-90-232.5-200.9-232.5z" id="hip_hop_clothes"/>
    <g id="chains">
        <path class="st117" d="M918.8 825.5c-14.1-26-47.6-20.4-49.6-21.3 0 0-8.5 19.9-23 53.6 1.8 38.4 48.6 23.7 48.6 23.7s7.8-15.3 24-56zM888.5 873s-28.5 4.8-31.8-13.6c9.8-22.8 18.5-43.2 18.5-43.2s27.2-.1 31.8 13.6c-16.2 41.9-18.5 43.2-18.5 43.2z"/>
        <path class="st117" d="M885.4 883.1c-8.5-28.4-42.4-29.8-44.2-31 0 0-12.4 17.7-33.5 47.7-6.1 37.9 42.7 33.2 42.7 33.2s10.7-13.4 35-49.9zm-39.5 40.3s-28.9-1.1-28.3-19.8c14.3-20.3 27-38.5 27-38.5s26.7 5.5 28.3 19.8c-24.4 37.7-27 38.5-27 38.5zM635.7 813.4c-29.3-4.4-45 25.8-46.9 26.8 0 0 10.7 18.7 29 50.6 31.7 21.7 48.2-24.5 48.2-24.5s-7.7-15.5-30.3-52.9zm19.6 52.8s-13.3 25.7-30 17.2C613 861.9 602 842.6 602 842.6s16.3-21.8 30-17.2c23.7 38.2 23.3 40.8 23.3 40.8z"/>
        <path class="st117" d="M664.3 865.1c-26.2.6-35.4 29.2-36.9 30.5 0 0 12.2 14.8 32.9 39.9 30.9 14.2 38.4-28.6 38.4-28.6s-9-12.5-34.4-41.8zm25.1 43.2s-7.8 24.4-23.6 19.5c-14-17-26.5-32.1-26.5-32.1s11-21.5 23.6-19.5c26.4 29.7 26.5 32.1 26.5 32.1z"/>
        <path class="st117" d="M690 908c-22 7.5-22.1 34.2-23 35.6 0 0 14.2 9.2 38.4 24.9 29.9 3.7 24.8-34.4 24.8-34.4s-11-8.2-40.2-26.1zm32.7 29.7s0 22.7-14.7 22.8c-16.4-10.6-30.9-20-30.9-20s3.5-21.1 14.7-22.8c30.2 18 30.9 20 30.9 20zM842.8 929.6c-3.9-22.9-30.3-27.2-31.5-28.3 0 0-11.3 12.6-30.5 34.1-8.3 29 30.1 29.9 30.1 29.9s9.6-9.6 31.9-35.7zm-34.5 27.7s-22.4-3.6-20.2-18.1c13-14.5 24.6-27.4 24.6-27.4s20.3 6.8 20.2 18.1c-22.5 27-24.6 27.4-24.6 27.4z"/>
        <path class="st117" d="M812.1 961.6c-3-17.5-23.1-20.7-24.1-21.6 0 0-8.6 9.6-23.3 26-6.3 22.1 23 22.8 23 22.8s7.4-7.3 24.4-27.2zm-26.3 21.1s-17.1-2.7-15.4-13.8c9.9-11.1 18.8-20.9 18.8-20.9s15.5 5.2 15.4 13.8c-17.2 20.6-18.8 20.9-18.8 20.9zM727.8 946.3c-17.7.8-23.4 20.3-24.4 21.2l22.9 26.4c21.1 9.1 25.5-20 25.5-20s-6.3-8.2-24-27.6zm17.7 28.8s-4.8 16.6-15.6 13.6c-9.7-11.2-18.4-21.2-18.4-21.2s7.1-14.7 15.6-13.6c18.3 19.6 18.4 21.2 18.4 21.2z"/>
    </g>
    <g id="Dollar_Sign">
        <path class="st117" d="M778.9 998.1h12.5s-1.8-31.4-37.7-26.7c-36 4.7-20.9 43.1-4.1 45.5 16.8 2.4 38.7 10.2 21.5 28.2-17.3 18-32.2-7.1-32.2-7.1l-17-.8s43.7 75.3 69.6.8c1.6-18.8-17-29.8-34.8-33.7s0-18 0-18 13.2-6.6 22.2 11.8z"/>
        <path class="st117" d="M743.6 957.3h10.3v125h-10.3zM767.7 957.3H778v125h-10.3z"/>
    </g>
    <path class="st121" d="M509.5 615.1c0-134.1 108.7-242.8 242.8-242.8S995.1 481 995.1 615.1 886.4 857.9 752.3 857.9c-143.7 0-242.8-83.6-242.8-242.8z" id="skin"/>
    <g id="eyes">
        <ellipse cx="648.3" cy="591.3" rx="30.8" ry="51"/>
        <ellipse cx="856.2" cy="591.3" rx="30.8" ry="51"/>
    </g>
    <g id="hip_hop_hair">
        <path class="st126" d="M752.3 372.3c-96.7 0-180.2 56.5-219.2 138.3h61.1s22.3-39.1 38 0c1.8 0 21.7-42.1 38.6 0h300.8C932.4 428.8 849 372.3 752.3 372.3z"/>
        <path class="st126" d="M970.2 508s1.3 2.7-12.7 35.5c12-22.7-5.9-32.8-5.9-32.8s-8.3-14.7-8.3 0-.6 14.6-12.2 40.6c10.5-19.9-9.4-43.1-9.4-43.1 1.1 21-8.3 20.5-28.7 39.2 16.6-19.3 4.4-36.7 4.4-36.7s-12.2-22.4-12.7-6.4-7.7 17.1-32.1 29.8c16-11.6 6.6-26 6.6-26s-22.7-23.2-24.3-5c-1.7 18.2 1.7 17.1-31 40.9 11.1-14.4 5-37.6 5-37.6s-16-15.4-12.4-1.5-11.8 31-40 59.5c15.9-15.1 6.2-53.8 6.2-53.8s-12.6-19.6-10.6-4.9c2.1 14.7-1.7 16.3-15.9 34.6 4.1-9.8 0-29.7 0-29.7s-16.3-15.9-12.2-6.1c4.1 9.8-3.3 21.6-16.7 43.6 10.2-17.1-16.7-40.8-16.7-40.8 3.7 24.5-9.4 23.2-20 36.3 9.3-13 0-33 0-33"/>
        <path class="st126" d="M966.7 520.5s32.1 92.1 13 121.9c5.2-3 10.3-6.1 14.7-10 .4-5.7.6-11.5.6-17.3 0-39.7-9.5-77.1-26.4-110.1-8.2 4.9-1.9 15.5-1.9 15.5zM594.2 510.6s-47 5.8-42.4 45.1c-5.2-29.5 0-45.1 0-45.1h42.4z"/>
        <path class="st126" d="M551.7 510.6s-34.7 94.9-27 123c-14.9-2.9-15.2-6.3-15.2-6.3s-7.4-58.6 23.6-116.7"/>
    </g>
    <path class="st127" d="M848.6 838l-1-2.8c-27.8-82.3-59.2-124.2-93.4-124.4h-.2c-58.8 0-102.6 123.1-104.5 128.4l-.5 1.4c6.4 2.4 13 4.5 19.7 6.4 25.2 4.8 52 7.2 79.8 7.2 32.9 0 65.4-5 96.6-14.8 1.2-.4 2.4-.9 3.5-1.4zm-191.6-.1c7.6-20 48-120.5 97-120.5h.2c30.6.2 59.6 39.5 86.1 116.7-29.6 9-154.8 10.3-183.3 3.8z" id="hip_hop_beard"/>
    <g id="musical_notes">
        <g class="music_note" id="music_note1">
            <ellipse transform="scale(-1) rotate(-16.086 -2826.746 7592.52)" class="st132" cx="1073" cy="399.4" rx="61.6" ry="38.6"/>
            <path class="st132" d="M1105 360.6l-50.7-175.7s102.6-42.3 147.6 96c-19.9-18.7-57.7-65-112.3-46 22.7 73.7 40.7 143 40.7 143"/>
        </g>
        <g class="music_note" id="music_note2">
            <ellipse transform="scale(-1) rotate(-16.086 -2368.804 9000.845)" class="st132" cx="1272" cy="334.7" rx="44.5" ry="27.9"/>
            <path class="st132" d="M1295.1 306.6l-36.6-127.1s74.2-30.6 106.7 69.4c-14.4-13.5-41.7-47-81.2-33.3 16.4 53.3 29.5 103.4 29.5 103.4"/>
        </g>
        <g class="music_note" id="music_note3">
            <ellipse transform="scale(-1) rotate(-16.086 -2025.271 10137.473)" class="st132" cx="1432.6" cy="286.2" rx="31" ry="19.4"/>
            <path class="st132" d="M1448.7 266.6l-25.5-88.4s51.6-21.3 74.3 48.3c-10-9.4-29-32.7-56.5-23.2 11.4 37.1 20.5 72 20.5 72"/>
        </g>
    </g>
</svg>
