<?xml version="1.0" encoding="utf-8"?>
<!-- Generator: Adobe Illustrator 19.1.0, SVG Export Plug-In . SVG Version: 6.00 Build 0)  -->
<svg version="1.1" xmlns="http://www.w3.org/2000/svg" xmlns:xlink="http://www.w3.org/1999/xlink" x="0px" y="0px"
	 viewBox="0 0 1567.2 1230.1" style="enable-background:new 0 0 1567.2 1230.1;" xml:space="preserve">
<style type="text/css">
	.st0{fill:#F5842D;}
	.st1{fill:#EE407F;}
	.st2{display:none;}
	.st3{display:inline;fill:#A9A8A8;}
	.st4{fill:#DB4B9B;}
	.st5{display:inline;fill:none;stroke:#9C3571;stroke-width:5;stroke-miterlimit:10;}
	.st6{display:inline;fill:#9C3571;}
	.st7{display:inline;fill:#DBD9D9;}
	.st8{display:inline;fill:#EAA1C7;}
	.st9{display:inline;fill:#EE4494;}
	.st10{display:inline;}
	.st11{fill:#FEF8FB;}
	.st12{display:inline;fill:#FEF8FB;stroke:#ED218E;stroke-width:8;stroke-miterlimit:10;}
	.st13{display:inline;fill:none;stroke:#7DD1E9;stroke-width:4;stroke-miterlimit:10;}
	.st14{display:inline;fill:none;stroke:#000000;stroke-miterlimit:10;}
	.st15{display:inline;fill:#58595A;}
	.st16{display:inline;fill:#D485B8;}
	.st17{display:inline;fill:#ECE830;}
	.st18{fill:none;}
	.st19{fill:#7F777F;}
	.st20{fill:#FFE1C0;}
	.st21{display:inline;fill:#EE407F;}
	.st22{display:inline;fill:#EBE84B;}
	.st23{display:inline;fill:#A95AA3;}
	.st24{display:inline;fill:#7DD1E9;}
	.st25{display:inline;fill:#825422;}
	.st26{fill:#825422;}
	.st27{display:inline;fill:#825422;stroke:#825422;stroke-width:7.874;stroke-miterlimit:10;}
	.st28{fill:#262524;stroke:#262524;stroke-width:5.5056;stroke-miterlimit:10;}
	.st29{fill:#262524;stroke:#262524;stroke-width:3.4877;stroke-miterlimit:10;}
	.st30{fill:#1B1A1B;}
	.st31{fill:#757273;}
	.st32{fill:#C2D950;}
</style>
<g id="icon_x5F_circle">
	<circle class="st0" cx="768" cy="615.1" r="547.5"/>
	<path class="st1" d="M928.4,264.9"/>
</g>
<g id="miku_clothes" class="st2">
	<path class="st3" d="M756.7,743.8c-110.9,0-200.8,104.1-200.8,232.5c0,64.3,22.6,122.5,59,164.6c48.6,14.1,100,21.7,153.1,21.7
		c42.5,0,83.9-4.8,123.6-14c40.5-42.5,66-104,66-172.3C957.5,847.9,867.6,743.8,756.7,743.8z"/>
	<path class="st3" d="M747.4,740.9c-110.9,0-200.8,104.1-200.8,232.5c0,64.3,22.6,122.5,59,164.6c48.6,14.1,100,21.7,153.1,21.7
		c42.5,0,83.9-4.8,123.6-14c40.5-42.5,66-104,66-172.3C948.3,845,858.4,740.9,747.4,740.9z"/>
</g>
<g id="j-rock_clothes">
	<path class="st4" d="M750,743.8c-110.9,0-200.8,104.1-200.8,232.5c0,63,21.6,120.1,56.7,161.9c50.1,15.5,103.4,24,158.5,24.4
		c41.4-0.2,81.7-5,120.4-14c40.5-42.5,66-104,66-172.3C950.8,847.9,860.9,743.8,750,743.8z"/>
</g>
<g id="J-ROCK_COLLAR" class="st2">
	<polyline class="st5" points="752.3,857.8 819.4,919.5 861.7,834 752.3,857.8 	"/>
	<polyline class="st5" points="752.3,857.8 690.1,919.5 651.4,839.8 752.3,857.8 	"/>
</g>
<g id="J-ROCK_BUTTONS" class="st2">
	<ellipse class="st6" cx="760.1" cy="900.2" rx="7.8" ry="8.4"/>
	<ellipse class="st6" cx="760.1" cy="973" rx="7.8" ry="8.4"/>
	<ellipse class="st6" cx="760.1" cy="1059.2" rx="7.8" ry="8.4"/>
</g>
<g id="hip_hop_clothes" class="st2">
	<path class="st7" d="M756.7,747.9c-110.9,0-200.8,104.1-200.8,232.5c0,64.3,22.6,122.5,59,164.6c48.6,14.1,100,21.7,153.1,21.7
		c42.5,0,83.9-4.8,123.6-14c40.5-42.5,66-104,66-172.3C957.5,852,867.6,747.9,756.7,747.9z"/>
</g>
<g id="jpop_clothes" class="st2">
	<path class="st8" d="M756.7,743.8c-110.9,0-200.8,104.1-200.8,232.5c0,64.3,22.6,122.5,59,164.6c48.6,14.1,100,21.7,153.1,21.7
		c42.5,0,83.9-4.8,123.6-14c40.5-42.5,66-104,66-172.3C957.5,847.9,867.6,743.8,756.7,743.8z"/>
</g>
<g id="stripes_j-pop" class="st2">
	<path class="st9" d="M701.7,851.6l-42.5-9.2l6.4,310.6c14.8,2.8,29.8,5,45,6.6L701.7,851.6z"/>
	<path class="st9" d="M828.2,842.4l-42,11.1l4.5,308.7c15.1-0.6,30-1.8,44.8-3.7L828.2,842.4z"/>
	<path class="st9" d="M903.9,1134.5l-9.7-327.7c-1.7-1.8-3.4-3.6-5.1-5.4l-25.9,9.6l8.2,341.9c6.8-1.3,13.5-2.7,20.2-4.2
		C895.8,1144.1,899.9,1139.4,903.9,1134.5z"/>
	<path class="st9" d="M597.1,835.2l4.6,288.9c4.2,5.8,8.6,11.4,13.2,16.8c7.6,2.2,15.4,4.3,23.1,6.2l-7.2-321.8l-22-6.3
		C604.7,824.2,600.8,829.6,597.1,835.2z"/>
</g>
<g id="sleeves_j-pop" class="st2">
	<g class="st10">
		<path class="st11" d="M749.1,856.9l3.2,1C751.7,857.2,750.6,856.9,749.1,856.9z"/>
		<path class="st11" d="M607.8,820.2c-25.8,33-43.6,74.6-49.6,120.7c0.1,0,164.1-84.8,191-84.1l-135.4-40.6L607.8,820.2z"/>
		<path class="st11" d="M955.2,941c0-0.3-3.9-22.8-11.4-49.2c-10.5-31.1-26.6-58.9-46.8-81.8c-38.1-12.6-144.8,47.9-144.8,47.9
			C763.5,869.3,955.2,941,955.2,941C955.2,941,955.2,941,955.2,941z"/>
	</g>
</g>
<g id="j-pop_collar" class="st2">
	<polyline class="st12" points="752.3,857.9 830.4,937.7 902.3,806 752.3,857.9 	"/>
	<polyline class="st12" points="752.3,857.9 679.2,937.7 608.8,819 752.3,857.9 	"/>
</g>
<g id="collar_miku" class="st2">
	<polygon class="st13" points="752.5,857.9 819.5,931.2 896.3,810.5 	"/>
	<path class="st14" d="M697.1,916.9"/>
	<polygon class="st13" points="679.2,931.2 752.5,857.9 612.9,813.9 	"/>
</g>
<g id="earphones_miku" class="st2">
	<rect x="988.4" y="534.4" class="st15" width="34.6" height="152"/>
	<rect x="991.2" y="622.5" class="st16" width="21.1" height="15.1"/>
	<rect x="991.2" y="646" class="st16" width="21.1" height="15.1"/>
	<rect x="477.2" y="539.1" class="st15" width="34.6" height="152"/>
	<rect x="490.6" y="652" class="st16" width="21.1" height="15.1"/>
	<rect x="490.6" y="627" class="st16" width="21.1" height="15.1"/>
</g>
<g id="chains" class="st2">
	<path class="st17" d="M918.8,825.5c-14.1-26-47.6-20.4-49.6-21.3c0,0-8.5,19.9-23,53.6c1.8,38.4,48.6,23.7,48.6,23.7
		S902.6,866.2,918.8,825.5z M888.5,873c0,0-28.5,4.8-31.8-13.6c9.8-22.8,18.5-43.2,18.5-43.2s27.2-0.1,31.8,13.6
		C890.8,871.7,888.5,873,888.5,873z"/>
	<path class="st17" d="M885.4,883.1c-8.5-28.4-42.4-29.8-44.2-31c0,0-12.4,17.7-33.5,47.7c-6.1,37.9,42.7,33.2,42.7,33.2
		S861.1,919.6,885.4,883.1z M845.9,923.4c0,0-28.9-1.1-28.3-19.8c14.3-20.3,27-38.5,27-38.5s26.7,5.5,28.3,19.8
		C848.5,922.6,845.9,923.4,845.9,923.4z"/>
	<path class="st17" d="M635.7,813.4c-29.3-4.4-45,25.8-46.9,26.8c0,0,10.7,18.7,29,50.6c31.7,21.7,48.2-24.5,48.2-24.5
		S658.3,850.8,635.7,813.4z M655.3,866.2c0,0-13.3,25.7-30,17.2C613,861.9,602,842.6,602,842.6s16.3-21.8,30-17.2
		C655.7,863.6,655.3,866.2,655.3,866.2z"/>
	<path class="st17" d="M664.3,865.1c-26.2,0.6-35.4,29.2-36.9,30.5c0,0,12.2,14.8,32.9,39.9c30.9,14.2,38.4-28.6,38.4-28.6
		S689.7,894.4,664.3,865.1z M689.4,908.3c0,0-7.8,24.4-23.6,19.5c-14-17-26.5-32.1-26.5-32.1s11-21.5,23.6-19.5
		C689.3,905.9,689.4,908.3,689.4,908.3z"/>
	<path class="st17" d="M690,908c-22,7.5-22.1,34.2-23,35.6c0,0,14.2,9.2,38.4,24.9c29.9,3.7,24.8-34.4,24.8-34.4
		S719.2,925.9,690,908z M722.7,937.7c0,0,0,22.7-14.7,22.8c-16.4-10.6-30.9-20-30.9-20s3.5-21.1,14.7-22.8
		C722,935.7,722.7,937.7,722.7,937.7z"/>
	<path class="st17" d="M842.8,929.6c-3.9-22.9-30.3-27.2-31.5-28.3c0,0-11.3,12.6-30.5,34.1c-8.3,29,30.1,29.9,30.1,29.9
		S820.5,955.7,842.8,929.6z M808.3,957.3c0,0-22.4-3.6-20.2-18.1c13-14.5,24.6-27.4,24.6-27.4s20.3,6.8,20.2,18.1
		C810.4,956.9,808.3,957.3,808.3,957.3z"/>
	<path class="st17" d="M812.1,961.6c-3-17.5-23.1-20.7-24.1-21.6c0,0-8.6,9.6-23.3,26c-6.3,22.1,23,22.8,23,22.8
		S795.1,981.5,812.1,961.6z M785.8,982.7c0,0-17.1-2.7-15.4-13.8c9.9-11.1,18.8-20.9,18.8-20.9s15.5,5.2,15.4,13.8
		C787.4,982.4,785.8,982.7,785.8,982.7z"/>
	<path class="st17" d="M727.8,946.3c-17.7,0.8-23.4,20.3-24.4,21.2c0,0,8.5,9.8,22.9,26.4c21.1,9.1,25.5-20,25.5-20
		S745.5,965.7,727.8,946.3z M745.5,975.1c0,0-4.8,16.6-15.6,13.6c-9.7-11.2-18.4-21.2-18.4-21.2s7.1-14.7,15.6-13.6
		C745.4,973.5,745.5,975.1,745.5,975.1z"/>
</g>
<g id="Dollar_Sign" class="st2">
	<path class="st17" d="M778.9,998.1h12.5c0,0-1.8-31.4-37.7-26.7c-36,4.7-20.9,43.1-4.1,45.5c16.8,2.4,38.7,10.2,21.5,28.2
		c-17.3,18-32.2-7.1-32.2-7.1l-17-0.8c0,0,43.7,75.3,69.6,0.8c1.6-18.8-17-29.8-34.8-33.7s0-18,0-18S769.9,979.7,778.9,998.1z"/>
	<rect x="743.6" y="957.3" class="st17" width="10.3" height="125"/>
	<rect x="767.7" y="957.3" class="st17" width="10.3" height="125"/>
</g>
<g id="vest_j-rock">
	<g>
		<path class="st18" d="M800.2,1168.7l81.8-18c-25.9,5.5-52.4,9.1-79.5,10.8C801.2,1167.7,800.2,1168.7,800.2,1168.7z"/>
		<path class="st18" d="M978,877.6c-29.2-32.7-73.9-69.6-73.9-69.6l-5.8,3.6c36.5,42.1,59.1,100.4,59.1,164.7
			c0,68.3-25.5,129.8-66,172.3c0,0,59.5-50,66-78.1C964,1042.4,1007.3,910.3,978,877.6z"/>
		<path class="st19" d="M885.5,817.9l-23.8,13.2c0,0-3.1,179.1-42.9,222.4c0.4,67.7-2.7,95.2-4.9,106.2c15.8-1,31.4-2.6,46.7-4.9
			c14.7-2.5,29.2-5.6,43.5-9.3c39.8-42.5,64.8-103.4,64.8-171c0-64.4-22.6-122.6-59.9-171.3L885.5,817.9z"/>
	</g>
	<g>
		<path class="st18" d="M673,1151.3c-20.9-3.4-41.4-7.9-61.5-13.3c-39.3-42.1-63.6-100.3-63.6-164.6c0-57,19.1-109.2,50.8-149.6
			c-18.6,10.9-43.2,26-62.9,40.7c-36.9,27.5-14.4,164.9-12.5,193.6s56.3,87.9,56.3,87.9l93.5,34.9
			C673.2,1180.9,670.6,1177.6,673,1151.3z"/>
	</g>
	<path class="st19" d="M563.5,831.8"/>
	<path class="st19" d="M654.1,825.1l-24.3-13.5l-24.1-15.1C567.3,846,544,905.3,543.9,970.9c-0.2,64.7,22.2,123.4,58.6,166.3
		c32,10.1,65.2,17.4,99.4,21.5c-2.2-12.1-5-40.5-4.5-106.9C656.8,1007.6,654.1,825.1,654.1,825.1z"/>
</g>
<g id="skin">
	<path class="st20" d="M509.5,615.1c0-134.1,108.7-242.8,242.8-242.8S995.1,481,995.1,615.1S886.4,857.9,752.3,857.9
		C608.6,857.9,509.5,774.3,509.5,615.1z"/>
</g>
<g id="eyes">
	<ellipse cx="648.3" cy="591.3" rx="30.8" ry="51"/>
	<ellipse cx="856.2" cy="591.3" rx="30.8" ry="51"/>
</g>
<g id="jpop_hair_base" class="st2">
	<path class="st21" d="M768,372.9c0,0-175.5-25-246.9,164.8c116.6-1.9,245-3.4,245-3.4L768,372.9z"/>
	<path class="st21" d="M835.1,461.6l26.9,75.5c37.8,1,80.3,2.1,121.3,3.2c-69.2-190.6-245-167.6-245-167.6v161.4
		c0,0,25.9,0.6,65,1.6L835.1,461.6z"/>
</g>
<g id="pigtails_jpop" class="st2">
	<path class="st21" d="M902.3,421.9c0,0,0.3-2,1-5.3c4-19.4,22.3-84.2,80.1-44.4c67.5,46.5,42.5,106.4,58.8,125.1
		c0,0,17.9,28.8,52.2,24.2c34.3-4.6,85.3-42.6,90.8,23.2s-16.7,140-65.8,181.7c4.6-64.9,23.2-114.9,5.6-130.7
		c-17.6-15.8-87.1,15.8-106.6-42.6s-55.6-73.2-60.7-74.2c-5.1-0.9-5.1-0.9-5.1-0.9"/>
	<g class="st10">
		<path class="st1" d="M601.9,426.1c0,0-0.3-2-1-5.2c-4.4-19.4-23.7-83.8-80.8-43C453.3,425.5,479.3,485,463.4,504
			c0,0-17.4,29.1-51.7,25.1c-34.4-4-86-41.2-90.4,24.7c-4.4,65.9,67.8,178.8,67.8,178.8c0.6,0.9,0.9,0.8,0.6-0.3
			c0,0-24.7-112.6-7.4-128.6s87.4,14.3,105.9-44.5s54.3-74.2,59.4-75.2c5.1-1,5.1-1,5.1-1"/>
	</g>
</g>
<g id="bowties" class="st2">
	<path class="st22" d="M894.9,366.2c0,0-51.9,8.4-51,72.3c21.8,10.7,61,1.2,61,1.2l13.1-18.6C918,421.2,908,361.9,894.9,366.2z"/>
	
		<rect x="908.5" y="426.3" transform="matrix(-0.8172 -0.5763 0.5763 -0.8172 1427.2761 1332.4897)" class="st22" width="32.9" height="27.2"/>
	<path class="st22" d="M1004.5,442.8c0,0,10.1,51.6-50.1,72.8c-17.6-16.7-22.3-56.8-22.3-56.8l12.9-18.7
		C945,440.1,1004.1,429,1004.5,442.8z"/>
	<path class="st23" d="M500.4,467.1c0,0-3.2,52.5,59.4,65.6c15.3-18.9,14.6-59.3,14.6-59.3l-15.3-16.9
		C559.1,456.6,499,453.4,500.4,467.1z"/>
	
		<rect x="562.5" y="440.3" transform="matrix(-0.7413 0.6712 -0.6712 -0.7413 1312.7306 401.8617)" class="st23" width="32.9" height="27.2"/>
	<path class="st23" d="M599.1,376.9c0,0,52.6,1.4,60.1,64.9c-20.2,13.5-60.3,9.3-60.3,9.3l-15.5-16.7
		C583.4,434.4,585.6,374.3,599.1,376.9z"/>
</g>
<g id="miku_hair" class="st2">
	<path class="st24" d="M549.5,477.8H955C911.6,412,837,368.5,752.3,368.5S592.9,412,549.5,477.8z"/>
	<path class="st24" d="M777.3,458.1c0,0-41.4,88.2,0,164.4c-79-70.4-80.2-164.4-80.2-164.4H777.3z"/>
	<path class="st24" d="M697.1,477.8c0,0-114.3,48.9-119.5,142.9c-4.4-84.3,7-153.5,30.6-162.6S697.1,477.8,697.1,477.8z"/>
	<path class="st24" d="M771.5,473.2c0,0,167.7,75.6,179.6,156.8c-8.5-75.2-83.8-156.8-83.8-156.8l-99.4-3.9"/>
	<path class="st24" d="M900.7,515.6c0,0,95.5,40.6,97.1,114.4c5-76.8-35.1-145.9-46.7-158c-11.6-12-83.8,1.1-83.8,1.1L900.7,515.6z"
		/>
	<path class="st24" d="M591.8,477.8c0,0-76.3,113.6-64.3,251.6c-18-129-9.1-148.3,21.9-251.6H591.8z"/>
	<path class="st24" d="M582.9,438.1c0,0-106.1,77.3-102,209c17.6-38.4,47.7-116.1,63.3-126.5C559.7,510.2,582.9,438.1,582.9,438.1z"
		/>
</g>
<g id="tie_miku" class="st2">
	<polygon class="st24" points="752.5,857.9 783.4,891 752.5,926.2 721.1,892 	"/>
	<polygon class="st24" points="752.5,926.2 798.9,1044.8 756.7,1162.5 721.1,1044.3 	"/>
</g>
<g id="pigtails_x5F_miku" class="st2">
	<path class="st24" d="M896.3,415.9c22.7-49.8,85.5-28.4,162.5,51.1c108.9,112.5,170.6,262.1,141.7,412.8
		c-48.3-137.5-71-209-104.2-264.7c27.2,44.1,85.8,174.3,36.3,311.1c-3-105.2-13-326.6-146.5-437.7c-60-49.9-34.9-16.4-34.9-16.4
		L896.3,415.9z"/>
	<path class="st24" d="M612.9,413.7c-25.5-48.4-87-23.4-159.3,60.4C351.4,592.7,298.5,745.6,336.1,894.3
		c40.3-140,58.8-212.8,88.7-270.2c-24.6,45.6-75.6,179-18.2,312.7c-3.1-105.2-6-326.8,120.9-445.5c57-53.3,33.9-18.4,33.9-18.4
		L612.9,413.7z"/>
</g>
<g id="miku_x5F_ornaments" class="st2">
	<polygon class="st16" points="905.9,353 968.6,423.1 951.1,472 940.6,458.1 951.1,419.7 905.9,378.5 887,409.4 873.6,401 	"/>
	<polygon class="st16" points="589.7,357.1 529.6,429.6 549,477.8 559,463.4 547,425.4 590.7,382.6 610.7,412.7 623.8,403.9 	"/>
</g>
<g id="hip_hop_hair" class="st2">
	<path class="st25" d="M551.7,510.6"/>
	<path class="st25" d="M752.3,372.3c-96.7,0-180.2,56.5-219.2,138.3h61.1c0,0,22.3-39.1,38,0c1.8,0,21.7-42.1,38.6,0h300.8
		C932.4,428.8,849,372.3,752.3,372.3z"/>
	<path class="st25" d="M970.2,508c0,0,1.3,2.7-12.7,35.5c12-22.7-5.9-32.8-5.9-32.8s-8.3-14.7-8.3,0c0,14.7-0.6,14.6-12.2,40.6
		c10.5-19.9-9.4-43.1-9.4-43.1c1.1,21-8.3,20.5-28.7,39.2c16.6-19.3,4.4-36.7,4.4-36.7s-12.2-22.4-12.7-6.4s-7.7,17.1-32.1,29.8
		c16-11.6,6.6-26,6.6-26s-22.7-23.2-24.3-5c-1.7,18.2,1.7,17.1-31,40.9c11.1-14.4,5-37.6,5-37.6s-16-15.4-12.4-1.5s-11.8,31-40,59.5
		c15.9-15.1,6.2-53.8,6.2-53.8s-12.6-19.6-10.6-4.9c2.1,14.7-1.7,16.3-15.9,34.6c4.1-9.8,0-29.7,0-29.7s-16.3-15.9-12.2-6.1
		c4.1,9.8-3.3,21.6-16.7,43.6c10.2-17.1-16.7-40.8-16.7-40.8c3.7,24.5-9.4,23.2-20,36.3c9.3-13,0-33,0-33"/>
	<path class="st25" d="M966.7,520.5"/>
	<g class="st10">
		<path class="st26" d="M966.7,520.5c0,0,32.1,92.1,13,121.9c5.2-3,10.3-6.1,14.7-10c0.4-5.7,0.6-11.5,0.6-17.3
			c0-39.7-9.5-77.1-26.4-110.1C960.4,509.9,966.7,520.5,966.7,520.5z"/>
	</g>
	<path class="st25" d="M594.2,510.6c0,0-47,5.8-42.4,45.1c-5.2-29.5,0-45.1,0-45.1L594.2,510.6z"/>
	<path class="st25" d="M551.7,510.6c0,0-34.7,94.9-27,123c-14.9-2.9-15.2-6.3-15.2-6.3s-7.4-58.6,23.6-116.7"/>
</g>
<g id="hip_hop_beard" class="st2">
	<path class="st27" d="M848.6,838l-1-2.8c-27.8-82.3-59.2-124.2-93.4-124.4c-0.1,0-0.2,0-0.2,0c-58.8,0-102.6,123.1-104.5,128.4
		l-0.5,1.4c6.4,2.4,13,4.5,19.7,6.4c25.2,4.8,52,7.2,79.8,7.2c32.9,0,65.4-5,96.6-14.8C846.3,839,847.5,838.5,848.6,838z M657,837.9
		c7.6-20,48-120.5,97-120.5c0.1,0,0.1,0,0.2,0c30.6,0.2,59.6,39.5,86.1,116.7C810.7,843.1,685.5,844.4,657,837.9z"/>
</g>
<g id="sunglasses_j-rock">
	<rect x="796.3" y="524.9" class="st28" width="112.1" height="127.9"/>
	<rect x="588.4" y="524.9" class="st28" width="112.1" height="127.9"/>
	<rect x="700.5" y="554" class="st28" width="95.8" height="25.8"/>
	<polyline class="st28" points="908.4,554 986.4,553.4 991.6,579.2 908.4,579.7 	"/>
	<polygon class="st28" points="591,551.2 521.5,551.2 513,579.7 591,579.7 	"/>
</g>
<g id="moustache_j-rock">
	<polygon class="st29" points="785.9,711.5 815.3,726.6 812.3,711.5 785.1,699.1 	"/>
	<polygon class="st29" points="686.9,713.9 716.8,699.5 713.3,714.5 685.7,726.2 	"/>
</g>
<g id="beard_j-rock">
	<path class="st30" d="M779.4,856.8L768,823.5h-32.9L725,856.4C725,856.4,774.7,860.8,779.4,856.8z"/>
</g>
<g id="HAT">
	<polyline class="st30" points="484.7,508.7 1033.6,508.7 992.5,480.8 513.9,480.8 484.7,502.9 	"/>
	<path class="st30" d="M959,480.8c0,0-37.3-280.8-215.6-167.8c1.2,2.3,0,167.8,0,167.8H959z"/>
	<path class="st30" d="M531.9,484.5c0,0,35.3-281.1,214.4-169.4c-1.1,2.3,1.2,167.8,1.2,167.8L531.9,484.5z"/>
	<polygon class="st31" points="532.4,480.8 959,480.8 955.1,459.1 536.3,459.1 	"/>
</g>
<g id="musical_notes">
	
		<ellipse transform="matrix(-0.9609 0.2771 -0.2771 -0.9609 2214.5732 485.9941)" class="st32" cx="1073" cy="399.4" rx="61.6" ry="38.6"/>
	<path class="st32" d="M1105,360.6l-50.7-175.7c0,0,102.6-42.3,147.6,96c-19.9-18.7-57.7-65-112.3-46c22.7,73.7,40.7,143,40.7,143"
		/>
	
		<ellipse transform="matrix(-0.9609 0.2771 -0.2771 -0.9609 2586.8884 303.9529)" class="st32" cx="1272" cy="334.7" rx="44.5" ry="27.9"/>
	<path class="st32" d="M1295.1,306.6l-36.6-127.1c0,0,74.2-30.6,106.7,69.4c-14.4-13.5-41.7-47-81.2-33.3
		c16.4,53.3,29.5,103.4,29.5,103.4"/>
	
		<ellipse transform="matrix(-0.9609 0.2771 -0.2771 -0.9609 2888.3965 164.2536)" class="st32" cx="1432.6" cy="286.2" rx="31" ry="19.4"/>
	<path class="st32" d="M1448.7,266.6l-25.5-88.4c0,0,51.6-21.3,74.3,48.3c-10-9.4-29-32.7-56.5-23.2c11.4,37.1,20.5,72,20.5,72"/>
</g>
</svg>
